<?xml version="1.0" encoding="UTF-8" standalone="no"?>
<svg
   xmlns:dc="http://purl.org/dc/elements/1.1/"
   xmlns:cc="http://creativecommons.org/ns#"
   xmlns:rdf="http://www.w3.org/1999/02/22-rdf-syntax-ns#"
   xmlns:svg="http://www.w3.org/2000/svg"
   xmlns="http://www.w3.org/2000/svg"
   xmlns:sodipodi="http://sodipodi.sourceforge.net/DTD/sodipodi-0.dtd"
   xmlns:inkscape="http://www.inkscape.org/namespaces/inkscape"
   width="390"
   height="90"
   viewBox="0 0 103.1875 23.8125"
   version="1.1"
   id="svg8"
   sodipodi:docname="libresignage_text.svg"
   inkscape:version="0.92.4 (5da689c313, 2019-01-14)">
  <sodipodi:namedview
     pagecolor="#ffffff"
     bordercolor="#666666"
     borderopacity="1"
     objecttolerance="10"
     gridtolerance="10"
     guidetolerance="10"
     inkscape:pageopacity="0"
     inkscape:pageshadow="2"
     inkscape:window-width="1362"
     inkscape:window-height="729"
     id="namedview971"
     showgrid="false"
     inkscape:zoom="2.0317829"
     inkscape:cx="173.29518"
     inkscape:cy="-1.0340615"
     inkscape:window-x="0"
     inkscape:window-y="18"
     inkscape:window-maximized="0"
     inkscape:current-layer="g123"
     units="px" />
  <defs
     id="defs2" />
  <metadata
     id="metadata5">
    <rdf:RDF>
      <cc:Work
         rdf:about="">
        <dc:format>image/svg+xml</dc:format>
        <dc:type
           rdf:resource="http://purl.org/dc/dcmitype/StillImage" />
        <dc:title></dc:title>
      </cc:Work>
    </rdf:RDF>
  </metadata>
  <g
     id="layer1"
     transform="translate(-0.05183196,-273.21005)">
    <g
       id="g123"
       transform="translate(-1.0583333,-1.0583333)">
      <g
         id="g149"
         transform="translate(1.2104326,1.6520832)">
        <g
           transform="matrix(1.022149,0,0,1.0221492,-0.04861375,-6.3019497)"
           id="g838">
          <rect
             y="286.37656"
             x="2.6978374"
             height="8"
             width="8"
             id="rect1257"
             style="fill:none;fill-opacity:1;stroke:#2b2d2a;stroke-width:1;stroke-linecap:round;stroke-linejoin:round;stroke-miterlimit:5.5999999;stroke-dasharray:none;stroke-opacity:1;paint-order:normal"
             rx="0.79374999"
             ry="0.79374999" />
          <rect
             y="274.66855"
             x="14.405827"
             height="8"
             width="8"
             id="rect1257-0"
             style="fill:none;fill-opacity:1;stroke:#2b2d2a;stroke-width:1;stroke-linecap:round;stroke-linejoin:round;stroke-miterlimit:5.5999999;stroke-dasharray:none;stroke-opacity:1;paint-order:normal"
             rx="0.79374999"
             ry="0.79374999" />
          <rect
             style="fill:#35da41;fill-opacity:1;stroke:none;stroke-width:0.99615544;stroke-linecap:round;stroke-linejoin:round;stroke-miterlimit:5.5999999;stroke-dasharray:none;stroke-opacity:1;paint-order:normal"
             id="rect1137"
             width="14.941021"
             height="14.943666"
             x="5.0799999"
             y="277.04776"
             rx="1.8520833"
             ry="1.8520833" />
          <path
             sodipodi:nodetypes="cccccccc"
             inkscape:connector-curvature="0"
             id="path1250"
             d="m 11.226701,282.16642 c -0.641637,-0.005 -1.035019,0.31044 -1.028881,1.02939 v 8.79636 h 0.999942 v -8.8253 h 8.824268 v -1.00045 z"
             style="color:#000000;font-style:normal;font-variant:normal;font-weight:normal;font-stretch:normal;font-size:medium;line-height:normal;font-family:sans-serif;font-variant-ligatures:normal;font-variant-position:normal;font-variant-caps:normal;font-variant-numeric:normal;font-variant-alternates:normal;font-feature-settings:normal;text-indent:0;text-align:start;text-decoration:none;text-decoration-line:none;text-decoration-style:solid;text-decoration-color:#000000;letter-spacing:normal;word-spacing:normal;text-transform:none;writing-mode:lr-tb;direction:ltr;text-orientation:mixed;dominant-baseline:auto;baseline-shift:baseline;text-anchor:start;white-space:normal;shape-padding:0;clip-rule:nonzero;display:inline;overflow:visible;visibility:visible;opacity:1;isolation:auto;mix-blend-mode:normal;color-interpolation:sRGB;color-interpolation-filters:linearRGB;solid-color:#000000;solid-opacity:1;vector-effect:none;fill:#fefefe;fill-opacity:1;fill-rule:nonzero;stroke:none;stroke-width:1;stroke-linecap:round;stroke-linejoin:round;stroke-miterlimit:5.5999999;stroke-dasharray:none;stroke-dashoffset:0;stroke-opacity:1;paint-order:normal;color-rendering:auto;image-rendering:auto;shape-rendering:auto;text-rendering:auto;enable-background:accumulate" />
          <path
             sodipodi:nodetypes="cccccccc"
             inkscape:connector-curvature="0"
             style="color:#000000;font-style:normal;font-variant:normal;font-weight:normal;font-stretch:normal;font-size:medium;line-height:normal;font-family:sans-serif;font-variant-ligatures:normal;font-variant-position:normal;font-variant-caps:normal;font-variant-numeric:normal;font-variant-alternates:normal;font-feature-settings:normal;text-indent:0;text-align:start;text-decoration:none;text-decoration-line:none;text-decoration-style:solid;text-decoration-color:#000000;letter-spacing:normal;word-spacing:normal;text-transform:none;writing-mode:lr-tb;direction:ltr;text-orientation:mixed;dominant-baseline:auto;baseline-shift:baseline;text-anchor:start;white-space:normal;shape-padding:0;clip-rule:nonzero;display:inline;overflow:visible;visibility:visible;opacity:1;isolation:auto;mix-blend-mode:normal;color-interpolation:sRGB;color-interpolation-filters:linearRGB;solid-color:#000000;solid-opacity:1;vector-effect:none;fill:#fefefe;fill-opacity:1;fill-rule:nonzero;stroke:none;stroke-width:1;stroke-linecap:round;stroke-linejoin:round;stroke-miterlimit:5.5999999;stroke-dasharray:none;stroke-dashoffset:0;stroke-opacity:1;paint-order:normal;color-rendering:auto;image-rendering:auto;shape-rendering:auto;text-rendering:auto;enable-background:accumulate"
             d="m 13.875687,286.87626 c 0.644431,0.006 1.028976,-0.40223 1.028877,-1.0294 v -8.79636 h -0.99994 v 8.8253 h -8.82426 v 1.00046 z"
             id="path1255" />
          <rect
             y="283.16687"
             x="11.197759"
             height="2.70893"
             width="2.7068651"
             id="rect975"
             style="fill:#2b2d2a;fill-opacity:1;stroke:none;stroke-width:1;stroke-linecap:round;stroke-linejoin:round;stroke-miterlimit:5.5999999;stroke-dasharray:none;stroke-opacity:1;paint-order:normal" />
        </g>
        <g
           aria-label="LibreSignage"
           style="font-style:normal;font-variant:normal;font-weight:500;font-stretch:normal;font-size:10.58333302px;line-height:1.25;font-family:Montserrat;-inkscape-font-specification:'Montserrat Medium';letter-spacing:0px;word-spacing:0px;fill:#2b2d2a;fill-opacity:1;stroke:none;stroke-width:0.26458332"
           id="text981"
           transform="translate(0,-0.53882521)">
          <path
             d="m 28.839744,280.46115 h 0.575733 v 7.38293 H 33.9649 v 0.51929 h -5.125156 z"
             style="font-style:normal;font-variant:normal;font-weight:300;font-stretch:normal;font-family:Montserrat;-inkscape-font-specification:'Montserrat Light';fill:#2b2d2a;fill-opacity:1"
             id="path106"
             inkscape:connector-curvature="0" />
          <path
             d="m 35.009122,282.47057 h 0.564445 v 5.8928 h -0.564445 z m 0.282222,-1.43369 q -0.191911,0 -0.327377,-0.12417 -0.135467,-0.13547 -0.135467,-0.32738 0,-0.19191 0.135467,-0.32738 0.135466,-0.13547 0.327377,-0.13547 0.191912,0 0.327378,0.13547 0.135467,0.12418 0.135467,0.31609 0,0.19191 -0.135467,0.32738 -0.135466,0.13546 -0.327378,0.13546 z"
             style="font-style:normal;font-variant:normal;font-weight:300;font-stretch:normal;font-family:Montserrat;-inkscape-font-specification:'Montserrat Light';fill:#2b2d2a;fill-opacity:1"
             id="path108"
             inkscape:connector-curvature="0" />
          <path
             d="m 40.656741,282.42542 q 0.824089,0 1.490133,0.38382 0.666045,0.37253 1.038578,1.06116 0.383822,0.67733 0.383822,1.54657 0,0.86925 -0.383822,1.54658 -0.372533,0.67733 -1.038578,1.06116 -0.666044,0.38382 -1.490133,0.38382 -0.790222,0 -1.433689,-0.37253 -0.632178,-0.38383 -0.982133,-1.06116 v 1.38853 h -0.541867 v -8.37635 h 0.564445 v 3.82693 q 0.349955,-0.65475 0.982133,-1.016 0.632178,-0.37253 1.411111,-0.37253 z m -0.03387,5.47511 q 0.677334,0 1.2192,-0.31609 0.541867,-0.31609 0.846667,-0.88053 0.316089,-0.56445 0.316089,-1.28694 0,-0.72249 -0.316089,-1.28693 -0.3048,-0.56444 -0.846667,-0.88053 -0.541866,-0.31609 -1.2192,-0.31609 -0.677333,0 -1.2192,0.31609 -0.530577,0.31609 -0.846666,0.88053 -0.3048,0.56444 -0.3048,1.28693 0,0.72249 0.3048,1.28694 0.316089,0.56444 0.846666,0.88053 0.541867,0.31609 1.2192,0.31609 z"
             style="font-style:normal;font-variant:normal;font-weight:300;font-stretch:normal;font-family:Montserrat;-inkscape-font-specification:'Montserrat Light';fill:#2b2d2a;fill-opacity:1"
             id="path110"
             inkscape:connector-curvature="0" />
          <path
             d="m 45.605156,283.75751 q 0.270933,-0.64347 0.846666,-0.98214 0.575734,-0.34995 1.399823,-0.34995 v 0.55315 l -0.135467,-0.0113 q -0.982133,0 -1.535289,0.62089 -0.553156,0.6096 -0.553156,1.70463 v 3.07057 h -0.564444 v -5.8928 h 0.541867 z"
             style="font-style:normal;font-variant:normal;font-weight:300;font-stretch:normal;font-family:Montserrat;-inkscape-font-specification:'Montserrat Light';fill:#2b2d2a;fill-opacity:1"
             id="path112"
             inkscape:connector-curvature="0" />
          <path
             d="m 54.076584,285.55244 h -5.068711 q 0.02258,0.68862 0.349955,1.23049 0.327378,0.53058 0.880534,0.82409 0.564444,0.29351 1.264355,0.29351 0.575734,0 1.061156,-0.2032 0.496711,-0.21449 0.824089,-0.62089 l 0.327378,0.37253 q -0.383823,0.46285 -0.970845,0.7112 -0.575733,0.24836 -1.253067,0.24836 -0.880533,0 -1.569155,-0.38382 -0.688622,-0.38383 -1.083733,-1.06116 -0.383823,-0.67733 -0.383823,-1.54658 0,-0.85795 0.361245,-1.53529 0.372533,-0.68862 1.016,-1.07244 0.643466,-0.38382 1.444978,-0.38382 0.801511,0 1.433688,0.38382 0.643467,0.37253 1.004712,1.04987 0.372533,0.67733 0.372533,1.53529 z m -2.799644,-2.63031 q -0.620889,0 -1.1176,0.28222 -0.496712,0.27093 -0.801512,0.77893 -0.293511,0.49672 -0.338666,1.12889 h 4.515555 q -0.03387,-0.63217 -0.338666,-1.12889 -0.3048,-0.49671 -0.801511,-0.77893 -0.496712,-0.28222 -1.1176,-0.28222 z"
             style="font-style:normal;font-variant:normal;font-weight:300;font-stretch:normal;font-family:Montserrat;-inkscape-font-specification:'Montserrat Light';fill:#2b2d2a;fill-opacity:1"
             id="path114"
             inkscape:connector-curvature="0" />
          <path
             d="m 57.917276,288.49884 q -0.936978,0 -1.817511,-0.24836 -0.869244,-0.25964 -1.399822,-0.66604 l 0.620889,-1.37724 q 0.508,0.37253 1.207911,0.59831 0.699911,0.22577 1.399822,0.22577 0.778933,0 1.151467,-0.22577 0.372533,-0.23707 0.372533,-0.62089 0,-0.28222 -0.225778,-0.46285 -0.214489,-0.19191 -0.564444,-0.3048 -0.338667,-0.11289 -0.925689,-0.24835 -0.903111,-0.21449 -1.478845,-0.42898 -0.575733,-0.21449 -0.993422,-0.68862 -0.4064,-0.47414 -0.4064,-1.26436 0,-0.68862 0.372534,-1.24178 0.372533,-0.56444 1.1176,-0.89182 0.756355,-0.32738 1.840088,-0.32738 0.756356,0 1.478845,0.18063 0.722489,0.18062 1.264355,0.51928 l -0.564444,1.38854 q -1.095022,-0.62089 -2.190044,-0.62089 -0.767645,0 -1.140178,0.24836 -0.361245,0.24835 -0.361245,0.65475 0,0.4064 0.417689,0.6096 0.428978,0.19191 1.298222,0.38382 0.903112,0.21449 1.478845,0.42898 0.575733,0.21449 0.982133,0.67733 0.417689,0.46285 0.417689,1.25307 0,0.67733 -0.383822,1.24178 -0.372533,0.55315 -1.128889,0.88053 -0.756356,0.32738 -1.840089,0.32738 z"
             style="font-style:normal;font-variant:normal;font-weight:bold;font-stretch:normal;font-family:Montserrat;-inkscape-font-specification:'Montserrat Bold';fill:#2b2d2a;fill-opacity:1"
             id="path116"
             inkscape:connector-curvature="0" />
          <path
             d="m 62.141965,282.28995 h 1.761066 v 6.07342 h -1.761066 z m 0.880533,-0.84667 q -0.485422,0 -0.790222,-0.28222 -0.3048,-0.28222 -0.3048,-0.69991 0,-0.41769 0.3048,-0.69991 0.3048,-0.28222 0.790222,-0.28222 0.485422,0 0.790222,0.27093 0.3048,0.27093 0.3048,0.67733 0,0.44027 -0.3048,0.73378 -0.3048,0.28222 -0.790222,0.28222 z"
             style="font-style:normal;font-variant:normal;font-weight:bold;font-stretch:normal;font-family:Montserrat;-inkscape-font-specification:'Montserrat Bold';fill:#2b2d2a;fill-opacity:1"
             id="path118"
             inkscape:connector-curvature="0" />
          <path
             d="m 71.538203,282.28995 v 5.05742 q 0,1.67076 -0.869244,2.48356 -0.869245,0.8128 -2.54,0.8128 -0.880534,0 -1.670756,-0.21449 -0.790222,-0.21449 -1.309511,-0.62089 l 0.699911,-1.26435 q 0.383822,0.31608 0.970844,0.49671 0.587023,0.19191 1.174045,0.19191 0.9144,0 1.343378,-0.41769 0.440266,-0.4064 0.440266,-1.24178 v -0.25964 q -0.688622,0.75635 -1.919111,0.75635 -0.835378,0 -1.535289,-0.36124 -0.688622,-0.37254 -1.095022,-1.03858 -0.4064,-0.66604 -0.4064,-1.53529 0,-0.86924 0.4064,-1.53529 0.4064,-0.66604 1.095022,-1.02729 0.699911,-0.37253 1.535289,-0.37253 1.3208,0 2.009422,0.86924 v -0.77893 z m -3.330222,4.33493 q 0.699911,0 1.140178,-0.4064 0.451555,-0.41768 0.451555,-1.08373 0,-0.66604 -0.451555,-1.07244 -0.440267,-0.41769 -1.140178,-0.41769 -0.699911,0 -1.151467,0.41769 -0.451555,0.4064 -0.451555,1.07244 0,0.66605 0.451555,1.08373 0.451556,0.4064 1.151467,0.4064 z"
             style="font-style:normal;font-variant:normal;font-weight:bold;font-stretch:normal;font-family:Montserrat;-inkscape-font-specification:'Montserrat Bold';fill:#2b2d2a;fill-opacity:1"
             id="path120"
             inkscape:connector-curvature="0" />
          <path
             d="m 76.593155,282.19964 q 1.128889,0 1.817511,0.67733 0.699911,0.67734 0.699911,2.00943 v 3.47697 H 77.34951 v -3.20604 q 0,-0.72249 -0.316088,-1.07245 -0.316089,-0.36124 -0.9144,-0.36124 -0.666045,0 -1.061156,0.41769 -0.395111,0.4064 -0.395111,1.2192 v 3.00284 h -1.761067 v -6.07342 h 1.682045 v 0.7112 q 0.349955,-0.38382 0.869244,-0.58702 0.519289,-0.21449 1.140178,-0.21449 z"
             style="font-style:normal;font-variant:normal;font-weight:bold;font-stretch:normal;font-family:Montserrat;-inkscape-font-specification:'Montserrat Bold';fill:#2b2d2a;fill-opacity:1"
             id="path122"
             inkscape:connector-curvature="0" />
          <path
             d="m 82.892004,282.19964 q 1.411111,0 2.167466,0.67733 0.756356,0.66605 0.756356,2.02071 v 3.46569 h -1.648178 v -0.75635 q -0.496711,0.84666 -1.851378,0.84666 -0.699911,0 -1.2192,-0.23706 -0.508,-0.23707 -0.778933,-0.65476 -0.270933,-0.41769 -0.270933,-0.94826 0,-0.84667 0.632177,-1.33209 0.643467,-0.48543 1.975556,-0.48543 h 1.399822 q 0,-0.57573 -0.349955,-0.88053 -0.349956,-0.31609 -1.049867,-0.31609 -0.485422,0 -0.959556,0.15805 -0.462844,0.14675 -0.790222,0.4064 l -0.632178,-1.23049 q 0.496711,-0.34996 1.185334,-0.54187 0.699911,-0.19191 1.433689,-0.19191 z m -0.135467,5.06871 q 0.451555,0 0.801511,-0.2032 0.349956,-0.21449 0.496711,-0.62089 v -0.62089 h -1.207911 q -1.083733,0 -1.083733,0.7112 0,0.33867 0.259644,0.54187 0.270933,0.19191 0.733778,0.19191 z"
             style="font-style:normal;font-variant:normal;font-weight:bold;font-stretch:normal;font-family:Montserrat;-inkscape-font-specification:'Montserrat Bold';fill:#2b2d2a;fill-opacity:1"
             id="path124"
             inkscape:connector-curvature="0" />
          <path
             d="m 93.476569,282.28995 v 5.05742 q 0,1.67076 -0.869244,2.48356 -0.869245,0.8128 -2.540001,0.8128 -0.880533,0 -1.670755,-0.21449 -0.790222,-0.21449 -1.309511,-0.62089 l 0.699911,-1.26435 q 0.383822,0.31608 0.970844,0.49671 0.587023,0.19191 1.174045,0.19191 0.9144,0 1.343378,-0.41769 0.440266,-0.4064 0.440266,-1.24178 v -0.25964 q -0.688622,0.75635 -1.919111,0.75635 -0.835378,0 -1.535289,-0.36124 -0.688622,-0.37254 -1.095022,-1.03858 -0.4064,-0.66604 -0.4064,-1.53529 0,-0.86924 0.4064,-1.53529 0.4064,-0.66604 1.095022,-1.02729 0.699911,-0.37253 1.535289,-0.37253 1.3208,0 2.009422,0.86924 v -0.77893 z m -3.330222,4.33493 q 0.699911,0 1.140177,-0.4064 0.451556,-0.41768 0.451556,-1.08373 0,-0.66604 -0.451556,-1.07244 -0.440266,-0.41769 -1.140177,-0.41769 -0.699911,0 -1.151467,0.41769 -0.451556,0.4064 -0.451556,1.07244 0,0.66605 0.451556,1.08373 0.451556,0.4064 1.151467,0.4064 z"
             style="font-style:normal;font-variant:normal;font-weight:bold;font-stretch:normal;font-family:Montserrat;-inkscape-font-specification:'Montserrat Bold';fill:#2b2d2a;fill-opacity:1"
             id="path126"
             inkscape:connector-curvature="0" />
          <path
             d="m 100.7893,285.34924 q 0,0.0339 -0.0339,0.47413 h -4.594582 q 0.124178,0.56445 0.587022,0.89183 0.462845,0.32737 1.151467,0.32737 0.474133,0 0.835378,-0.13546 0.372533,-0.14676 0.688622,-0.45156 l 0.936973,1.016 q -0.857951,0.98213 -2.506129,0.98213 -1.027289,0 -1.817511,-0.39511 -0.790222,-0.4064 -1.2192,-1.1176 -0.428978,-0.7112 -0.428978,-1.61431 0,-0.89182 0.417689,-1.60302 0.428978,-0.72249 1.162756,-1.1176 0.745066,-0.4064 1.659466,-0.4064 0.891823,0 1.614312,0.38382 0.722488,0.38382 1.128885,1.10631 0.41769,0.7112 0.41769,1.65947 z m -3.149598,-1.81751 q -0.598311,0 -1.004711,0.33867 -0.4064,0.33866 -0.496711,0.92568 h 2.991556 q -0.09031,-0.57573 -0.496711,-0.9144 -0.4064,-0.34995 -0.993423,-0.34995 z"
             style="font-style:normal;font-variant:normal;font-weight:bold;font-stretch:normal;font-family:Montserrat;-inkscape-font-specification:'Montserrat Bold';fill:#2b2d2a;fill-opacity:1"
             id="path128"
             inkscape:connector-curvature="0" />
        </g>
        <flowRoot
           transform="translate(0,-1.0583333)"
           xml:space="preserve"
           id="flowRoot63"
           style="font-style:normal;font-variant:normal;font-weight:normal;font-stretch:normal;font-size:40px;line-height:1.25;font-family:'Courier 10 Pitch';-inkscape-font-specification:'Courier 10 Pitch';letter-spacing:0px;word-spacing:0px;fill:#000000;fill-opacity:1;stroke:none"><flowRegion
             id="flowRegion65"><rect
               id="rect67"
               width="3.4802279"
               height="52.203419"
               x="401.61832"
               y="-59.337891" /></flowRegion><flowPara
             id="flowPara69" /></flowRoot>      </g>
    </g>
  </g>
</svg>
